<?xml version="1.0" encoding="UTF-8" standalone="no"?>
<!-- Created with Inkscape (http://www.inkscape.org/) -->

<svg
   xmlns:dc="http://purl.org/dc/elements/1.1/"
   xmlns:cc="http://creativecommons.org/ns#"
   xmlns:rdf="http://www.w3.org/1999/02/22-rdf-syntax-ns#"
   xmlns:svg="http://www.w3.org/2000/svg"
   xmlns="http://www.w3.org/2000/svg"
   xmlns:sodipodi="http://sodipodi.sourceforge.net/DTD/sodipodi-0.dtd"
   xmlns:inkscape="http://www.inkscape.org/namespaces/inkscape"
   width="45.18111"
   height="29.330709"
   viewBox="0 0 11.95418 7.760422"
   version="1.1"
   id="svg8"
   inkscape:version="0.92.2 5c3e80d, 2017-08-06"
   sodipodi:docname="email.svg">
  <defs
     id="defs2" />
  <sodipodi:namedview
     id="base"
     pagecolor="#ffffff"
     bordercolor="#666666"
     borderopacity="1.0"
     inkscape:pageopacity="0.0"
     inkscape:pageshadow="2"
     inkscape:zoom="23.475639"
     inkscape:cx="45.479908"
     inkscape:cy="15.531473"
     inkscape:document-units="mm"
     inkscape:current-layer="svg8"
     showgrid="false"
     inkscape:window-width="3790"
     inkscape:window-height="2027"
     inkscape:window-x="20"
     inkscape:window-y="103"
     inkscape:window-maximized="1"
     units="px"
     scale-x="1" />
  <metadata
     id="metadata5">
    <rdf:RDF>
      <cc:Work
         rdf:about="">
        <dc:format>image/svg+xml</dc:format>
        <dc:type
           rdf:resource="http://purl.org/dc/dcmitype/StillImage" />
        <dc:title></dc:title>
      </cc:Work>
    </rdf:RDF>
  </metadata>
  <g
     id="g972"
     transform="matrix(0.3545472,0,0,0.3545472,-1.0229434,-3.0788308)">
    <path
       d="M 5,11.6 C 4.7,11.5 4.1,11.1 4,10.8 3.7,10.2 4,10 4.9,10 h 29.9 c 0.8,0 1.1,0.2 0.9,0.8 -0.2,0.3 -0.7,0.7 -1,0.8 -0.9,0.5 -12.8,7 -13.2,7.2 -0.4,0.2 -1,0.3 -1.7,0.3 -0.7,0 -1.1,0 -1.6,-0.3 C 17.7,18.5 5.8,12.1 5,11.6 Z M 35.4,12 c 0.7,-0.4 0.6,0 0.6,0.3 V 28.4 C 36,29.1 35.1,30 34.3,30 H 5.4 C 4.6,30 3.5,29.1 3.5,28.4 V 12.3 c 0,0 0,-0.7 0.7,-0.3 0.6,0.3 6.5,4.3 10.3,6.8 L 8,26.1 c -0.1,0.2 -0.1,0.3 0,0.4 0.1,0.1 0.3,0.1 0.4,-0.1 l 7.7,-6.5 c 1.1,0.8 1.9,1.3 2.1,1.4 0.6,0.3 1.1,0.3 1.6,0.3 0.5,0 1,0 1.7,-0.3 0.1,-0.1 0.9,-0.6 2.1,-1.4 l 7.6,6.5 c 0.2,0.2 0.4,0.2 0.5,0.1 0.1,-0.1 0,-0.2 -0.2,-0.4 L 25.1,18.8 C 29,16.3 34.8,12.3 35.4,12 Z"
       id="path970"
       inkscape:connector-curvature="0" />
  </g>
</svg>
