<?xml version="1.0" encoding="UTF-8" standalone="no"?>
<!-- Created with Inkscape (http://www.inkscape.org/) -->

<svg
   xmlns:dc="http://purl.org/dc/elements/1.1/"
   xmlns:cc="http://creativecommons.org/ns#"
   xmlns:rdf="http://www.w3.org/1999/02/22-rdf-syntax-ns#"
   xmlns:svg="http://www.w3.org/2000/svg"
   xmlns="http://www.w3.org/2000/svg"
   xmlns:sodipodi="http://sodipodi.sourceforge.net/DTD/sodipodi-0.dtd"
   xmlns:inkscape="http://www.inkscape.org/namespaces/inkscape"
   width="49.18111"
   height="43.330711"
   viewBox="0 0 13.01251 11.464591"
   version="1.1"
   id="svg8"
   inkscape:version="0.92.2 5c3e80d, 2017-08-06"
   sodipodi:docname="github.svg">
  <defs
     id="defs2" />
  <sodipodi:namedview
     id="base"
     pagecolor="#ffffff"
     bordercolor="#666666"
     borderopacity="1.0"
     inkscape:pageopacity="0.0"
     inkscape:pageshadow="2"
     inkscape:zoom="1.6931043"
     inkscape:cx="-457.25522"
     inkscape:cy="291.85063"
     inkscape:document-units="mm"
     inkscape:current-layer="svg8"
     showgrid="false"
     inkscape:window-width="1804"
     inkscape:window-height="2027"
     inkscape:window-x="2006"
     inkscape:window-y="103"
     inkscape:window-maximized="1"
     units="px" />
  <metadata
     id="metadata5">
    <rdf:RDF>
      <cc:Work
         rdf:about="">
        <dc:format>image/svg+xml</dc:format>
        <dc:type
           rdf:resource="http://purl.org/dc/dcmitype/StillImage" />
        <dc:title></dc:title>
      </cc:Work>
    </rdf:RDF>
  </metadata>
  <g
     id="g991"
     transform="matrix(0.34068464,0,0,0.34068464,0.9376268,-1.2019168)">
    <path
       d="m 11.4,22.4 c 0.7,0 1.3,0.3 1.7,1 0.4,0.7 0.8,1.6 0.8,2.5 0,0.9 -0.3,1.8 -0.8,2.5 -0.5,0.7 -1.1,1 -1.7,1 -0.7,0 -1.3,-0.3 -1.8,-1 -0.5,-0.7 -0.7,-1.5 -0.7,-2.5 0,-1 0.2,-1.8 0.7,-2.5 0.5,-0.7 1.1,-1 1.8,-1 z m 12.3,0 c 0.7,0 1.2,0.3 1.7,1 0.5,0.7 0.7,1.6 0.7,2.5 0,0.9 -0.2,1.8 -0.7,2.5 -0.5,0.7 -1,1 -1.7,1 -0.7,0 -1.4,-0.3 -1.9,-1 -0.5,-0.7 -0.7,-1.5 -0.7,-2.5 0,-1 0.2,-1.8 0.7,-2.5 0.5,-0.7 1.2,-1 1.9,-1 z m 8.6,-9 c 1.9,2.1 2.7,5.2 2.7,7.5 0,1.9 -0.1,3.6 -0.5,5.1 -0.4,1.5 -1,2.8 -1.6,3.7 -0.7,0.9 -1.5,1.8 -2.5,2.5 -1,0.7 -1.9,1.3 -2.7,1.6 -0.8,0.3 -1.7,0.7 -2.8,0.8 -1,0.2 -1.9,0.3 -2.4,0.3 0,0 -2.2,0.1 -5,0.1 -2.8,0 -5,-0.1 -5,-0.1 -0.5,0 -1.4,-0.1 -2.4,-0.3 C 9,34.5 8,34.1 7.3,33.8 6.6,33.5 5.5,32.9 4.6,32.2 3.6,31.5 2.8,30.6 2.1,29.7 1.5,28.8 0.9,27.5 0.5,26 0.1,24.5 0,22.8 0,20.9 c 0,-2.4 0.8,-5.4 2.7,-7.5 0,0 -0.2,-1.1 0,-3 C 2.9,8.5 3.2,6.6 3.9,5 c 2.3,0.2 5.2,1.6 8.8,4 1.1,-0.3 2.8,-0.5 4.8,-0.5 2.2,0 3.7,0.2 4.8,0.5 1.6,-1.1 3.1,-1.9 4.6,-2.6 1.5,-0.6 2.6,-1 3.2,-1.2 0.6,-0.2 1,-0.2 1,-0.2 0.7,1.6 1.1,3.4 1.2,5.4 0.1,2 0,3 0,3 z m -5.1,18.3 c 2.2,-1 3.3,-3.1 3.3,-6.3 0,-1.9 -0.7,-3.4 -2.1,-4.6 -0.7,-0.7 -1.5,-1 -2.5,-1.2 -1,-0.2 -2.4,-0.1 -4.3,0.1 -1.9,0.2 -3.2,0.3 -4.1,0.3 -0.9,0 -2,-0.2 -3.3,-0.2 -1.3,0 -2.3,-0.3 -3,-0.3 -0.8,0 -1.6,0 -2.4,0.2 -0.8,0.2 -1.7,0.5 -2.2,1.1 -1.4,1.2 -2,2.7 -2,4.6 0,3.2 1,5.3 3.2,6.3 2.1,1 5.4,1.4 9.6,1.4 h 0.2 c 4.2,0 7.4,-0.4 9.6,-1.4 z"
       id="path989"
       inkscape:connector-curvature="0" />
  </g>
</svg>
