<?xml version="1.0" encoding="UTF-8" standalone="no"?>
<!-- Created with Inkscape (http://www.inkscape.org/) -->

<svg
   xmlns:dc="http://purl.org/dc/elements/1.1/"
   xmlns:cc="http://creativecommons.org/ns#"
   xmlns:rdf="http://www.w3.org/1999/02/22-rdf-syntax-ns#"
   xmlns:svg="http://www.w3.org/2000/svg"
   xmlns="http://www.w3.org/2000/svg"
   xmlns:sodipodi="http://sodipodi.sourceforge.net/DTD/sodipodi-0.dtd"
   xmlns:inkscape="http://www.inkscape.org/namespaces/inkscape"
   width="113.18111"
   height="113.33071"
   viewBox="0 0 29.945846 29.985426"
   version="1.1"
   id="svg8"
   inkscape:version="0.92.2 5c3e80d, 2017-08-06"
   sodipodi:docname="linkedin.svg">
  <defs
     id="defs2" />
  <sodipodi:namedview
     id="base"
     pagecolor="#ffffff"
     bordercolor="#666666"
     borderopacity="1.0"
     inkscape:pageopacity="0.0"
     inkscape:pageshadow="2"
     inkscape:zoom="11.502696"
     inkscape:cx="66.822277"
     inkscape:cy="56.798936"
     inkscape:document-units="mm"
     inkscape:current-layer="svg8"
     showgrid="false"
     inkscape:window-width="3790"
     inkscape:window-height="2027"
     inkscape:window-x="20"
     inkscape:window-y="103"
     inkscape:window-maximized="1"
     units="px" />
  <metadata
     id="metadata5">
    <rdf:RDF>
      <cc:Work
         rdf:about="">
        <dc:format>image/svg+xml</dc:format>
        <dc:type
           rdf:resource="http://purl.org/dc/dcmitype/StillImage" />
        <dc:title></dc:title>
      </cc:Work>
    </rdf:RDF>
  </metadata>
  <g
     id="g1998"
     transform="translate(-5.0663547,-4.9471101)">
    <path
       d="M 32.6,5 C 34,5 35,6 35,7.3 V 32.4 C 35,33.8 34,35 32.6,35 H 7.6 C 6.2,35 5,33.8 5,32.4 V 7.3 C 5,6 6.2,5 7.6,5 Z M 14.3,30 V 16.6 H 10 V 30 Z m -2,-15.4 c 1.4,0 2.3,-1 2.3,-2.3 0,-1.3 -0.8,-2.3 -2.3,-2.3 -1.5,0 -2.3,1 -2.3,2.3 0,1.3 0.9,2.3 2.3,2.3 z M 30,30 v -7.8 c 0,-4 -2.1,-5.9 -4.9,-5.9 -2.3,0 -3.3,1.4 -3.9,2.2 V 16.6 H 16.9 V 30 h 4.3 v -7.6 c 0,-0.4 0,-0.8 0.1,-1.1 0.3,-0.8 1,-1.5 2.2,-1.5 1.6,0 2.2,1.1 2.2,2.9 V 30 Z"
       id="path1996"
       inkscape:connector-curvature="0" />
  </g>
</svg>
