<?xml version="1.0" encoding="UTF-8" standalone="no"?>
<!-- Created with Inkscape (http://www.inkscape.org/) -->

<svg
   xmlns:dc="http://purl.org/dc/elements/1.1/"
   xmlns:cc="http://creativecommons.org/ns#"
   xmlns:rdf="http://www.w3.org/1999/02/22-rdf-syntax-ns#"
   xmlns:svg="http://www.w3.org/2000/svg"
   xmlns="http://www.w3.org/2000/svg"
   xmlns:sodipodi="http://sodipodi.sourceforge.net/DTD/sodipodi-0.dtd"
   xmlns:inkscape="http://www.inkscape.org/namespaces/inkscape"
   width="141.18111"
   height="121.33071"
   viewBox="0 0 37.35417 32.10209"
   version="1.1"
   id="svg8"
   inkscape:version="0.92.2 5c3e80d, 2017-08-06"
   sodipodi:docname="twitter.svg">
  <defs
     id="defs2" />
  <sodipodi:namedview
     id="base"
     pagecolor="#ffffff"
     bordercolor="#666666"
     borderopacity="1.0"
     inkscape:pageopacity="0.0"
     inkscape:pageshadow="2"
     inkscape:zoom="1.6931043"
     inkscape:cx="-457.25522"
     inkscape:cy="291.85063"
     inkscape:document-units="mm"
     inkscape:current-layer="svg8"
     showgrid="false"
     inkscape:window-width="3790"
     inkscape:window-height="2027"
     inkscape:window-x="20"
     inkscape:window-y="103"
     inkscape:window-maximized="1"
     units="px" />
  <metadata
     id="metadata5">
    <rdf:RDF>
      <cc:Work
         rdf:about="">
        <dc:format>image/svg+xml</dc:format>
        <dc:type
           rdf:resource="http://purl.org/dc/dcmitype/StillImage" />
        <dc:title></dc:title>
      </cc:Work>
    </rdf:RDF>
  </metadata>
  <g
     id="g1151"
     transform="translate(-1.2501691,-3.7505073)">
    <path
       d="m 38.4,8.6 c -1,1.6 -2.3,2.8 -3.8,3.9 v 0.9 C 34.6,23.4 27,35 13.1,35 8.8,35 4.9,33.8 1.5,31.6 c 0.6,0 1.2,0.1 1.8,0.1 3.5,0 6.8,-1.2 9.4,-3.3 -3.3,0 -6.1,-2.2 -7.1,-5.2 0.5,0.1 1,0.2 1.4,0.2 0.7,0 1.5,-0.2 2.1,-0.4 C 5.6,22.3 3,19.3 3,15.6 v -0.1 c 1,0.6 2.2,1 3.4,1 -2,-1.3 -3.3,-3.7 -3.3,-6.3 0,-1.4 0.4,-2.7 1,-3.8 3.7,4.6 9.3,7.6 15.5,7.9 -0.1,-0.5 -0.1,-1.1 -0.1,-1.7 0,-4.2 3.3,-7.6 7.5,-7.6 2.2,0 4.1,0.9 5.5,2.4 1.7,-0.3 3.4,-1 4.9,-1.9 -0.6,1.8 -1.8,3.3 -3.4,4.3 1.6,-0.2 3,-0.6 4.4,-1.2 z"
       id="path1149"
       inkscape:connector-curvature="0" />
  </g>
</svg>
